<?xml version="1.0" encoding="UTF-8"?>
<svg id="Forma" xmlns="http://www.w3.org/2000/svg" viewBox="0 0 1080 1080">
  <defs>
    <style>
      .cls-1 {
        fill: #999;
      }
    </style>
  </defs>
  <path class="cls-1" d="m977,135.28l-328.03-9.56c-34.75-8.96-71.19-13.72-108.74-13.72-239.94,0-434.45,194.51-434.45,434.45,0,21.89,1.64,43.4,4.76,64.43l-11.05,349.27,344.5,10.04c30.96,7,63.17,10.72,96.24,10.72,239.94,0,434.45-194.51,434.45-434.45,0-28.57-2.79-56.49-8.05-83.52l10.37-327.65Zm-438.25,780.38c-206.37,0-373.66-167.29-373.66-373.66s167.29-373.66,373.66-373.66,373.66,167.29,373.66,373.66-167.29,373.66-373.66,373.66Z"/>
  <path class="cls-1" d="m342.38,245.53h243.23c148.69,0,222.61,107.44,222.61,214.87s-74.78,215.73-221.75,215.73h-90.25v177.92h-153.85V245.53Zm243.23,293.95c92.83.86,92.83-151.27,0-150.41h-89.39v150.41h89.39Z"/>
</svg>