<?xml version="1.0" encoding="UTF-8"?>
<svg xmlns="http://www.w3.org/2000/svg" viewBox="0 0 1080 1080">
  <defs>
    <style>
      .cls-1, .cls-2 {
        fill: #999;
      }

      .cls-2 {
        stroke: #fff;
        stroke-miterlimit: 10;
        stroke-width: 7px;
      }
    </style>
  </defs>
  <g id="Forma">
    <path class="cls-1" d="m468.1,431.99h90.62c55.4,0,82.93,40.03,82.93,80.05s-27.86,80.37-82.61,80.37h-33.62v66.28h-57.32v-226.71Zm90.62,109.51c34.58.32,34.58-56.36,0-56.04h-33.3v56.04h33.3Z"/>
  </g>
  <g id="Rellenos">
    <g>
      <path class="cls-1" d="m402.93,523.19c-.06.28-.11.56-.18.84.07-.28.12-.56.18-.84Z"/>
      <path class="cls-1" d="m401.67,527.61c-.05.13-.09.25-.14.38.05-.13.09-.25.14-.38Z"/>
      <path class="cls-1" d="m402.37,525.45c-.06.2-.11.39-.17.59.06-.19.11-.39.17-.59Z"/>
      <path class="cls-1" d="m403.34,520.78c-.05.4-.1.79-.17,1.18.07-.39.12-.79.17-1.18Z"/>
      <path class="cls-1" d="m399.9,531.6s-.03.06-.05.09c.02-.03.03-.06.05-.09Z"/>
      <path class="cls-1" d="m700.85,393.37l-122.21-3.56c-12.95-3.34-26.52-5.11-40.51-5.11-76.59,0-140.74,53.2-157.55,124.65.02.2.03.4.02.6,2.91-3.66,9.77-3.4,10.86,1.88.12.59.22,1.18.32,1.77,1.82-1.19,3.22-1.74,5.71-2,1.67-.18,3.28.66,4.43,1.93,0,0,0,0,0,0,14.23-61.77,69.56-107.83,135.66-107.83,76.88,0,139.21,62.33,139.21,139.21s-62.33,139.21-139.21,139.21-139.21-62.33-139.21-139.21c0-3.86.16-7.68.47-11.45-3.41,5.51-8.53,9.84-15.06,11.49-2.83.71-5.48-.56-6.88-2.89-.18.06-.36.1-.55.14-.04,1.45-.08,2.91-.08,4.37,0,8.16.61,16.17,1.77,24l-4.12,130.12,128.34,3.74c11.53,2.61,23.53,3.99,35.86,3.99,89.39,0,161.86-72.47,161.86-161.86,0-10.64-1.04-21.04-3-31.12l3.86-122.07Z"/>
      <path class="cls-1" d="m400.84,529.66c-.03.07-.06.14-.1.21.03-.07.06-.14.1-.21Z"/>
      <path class="cls-1" d="m402.94,514.97s.01.03.02.05c0-.02-.01-.03-.02-.05Z"/>
      <path class="cls-1" d="m403.62,517.72c-.03.71-.08,1.43-.15,2.14.07-.71.13-1.43.15-2.14Z"/>
      <path class="cls-1" d="m403.19,515.5s.03.07.04.1c-.01-.03-.02-.07-.04-.1Z"/>
      <path class="cls-1" d="m402.65,514.46s0,0,0,0c0,0,0,0,0,0Z"/>
      <path class="cls-1" d="m403.39,516.04c.02.06.03.12.05.18-.02-.06-.03-.12-.05-.18Z"/>
      <path class="cls-1" d="m403.62,517.72c0-.19,0-.38-.02-.56.02.19.02.38.02.56Z"/>
      <path class="cls-1" d="m403.53,516.59c.02.1.03.19.04.29-.01-.1-.02-.19-.04-.29Z"/>
    </g>
    <rect class="cls-1" x="529.85" y="222.29" width="18.78" height="92.8" rx="7.67" ry="7.67"/>
    <rect class="cls-1" x="529.85" y="151.58" width="18.78" height="92.8" rx="7.67" ry="7.67"/>
    <rect class="cls-1" x="528.74" y="847.62" width="18.78" height="92.8" rx="7.67" ry="7.67" transform="translate(1076.27 1788.04) rotate(180)"/>
    <rect class="cls-1" x="391.12" y="259.16" width="18.78" height="92.8" rx="7.67" ry="7.67" transform="translate(-99.13 241.19) rotate(-30)"/>
    <rect class="cls-1" x="289.42" y="360.46" width="18.78" height="92.8" rx="7.67" ry="7.67" transform="translate(-202.95 462.21) rotate(-60)"/>
    <rect class="cls-1" x="288.86" y="637.77" width="18.78" height="92.8" rx="7.67" ry="7.67" transform="translate(-145.13 1284.56) rotate(-120)"/>
    <rect class="cls-1" x="390.16" y="739.48" width="18.78" height="92.8" rx="7.67" ry="7.67" transform="translate(352.64 1666.25) rotate(-150)"/>
    <rect class="cls-1" x="528.74" y="776.91" width="18.78" height="92.8" rx="7.67" ry="7.67" transform="translate(1076.27 1646.62) rotate(-180)"/>
    <rect class="cls-1" x="667.47" y="740.03" width="18.78" height="92.8" rx="7.67" ry="7.67" transform="translate(1656.26 1129.07) rotate(150)"/>
    <rect class="cls-1" x="769.18" y="638.73" width="18.78" height="92.8" rx="7.67" ry="7.67" transform="translate(1761.19 353.44) rotate(120)"/>
    <rect class="cls-1" x="769.73" y="361.42" width="18.78" height="92.8" rx="7.67" ry="7.67" transform="translate(742.75 -470.83) rotate(60)"/>
    <rect class="cls-1" x="668.43" y="259.72" width="18.78" height="92.8" rx="7.67" ry="7.67" transform="translate(243.87 -297.9) rotate(30)"/>
  </g>
  <g id="Contornos">
    <path class="cls-1" d="m538.69,242.29c37.35,0,73.81,6.7,108.37,19.9,33.39,12.76,64.04,31.2,91.12,54.81,48.65,42.42,82.4,99,96.61,161.23-5.31,1.83-9.87,5.42-12.89,10.35-3.45,5.62-4.51,12.4-3.13,18.75v7.82c-3.01,5.51-4.03,12.13-2.53,18.77,2.68,11.87,13.07,20.16,25.25,20.16.27,0,.55,0,.82-.01-.98,38.16-8.96,75.18-23.76,110.16-15.3,36.16-37.2,68.65-65.1,96.54-27.9,27.9-60.38,49.8-96.54,65.1-37.43,15.83-77.2,23.86-118.21,23.86s-80.78-8.03-118.21-23.86c-36.16-15.3-68.65-37.2-96.54-65.1-27.9-27.9-49.8-60.38-65.1-96.54-11.73-27.73-19.17-56.74-22.25-86.59,1.34.21,2.71.31,4.11.31,2.3,0,4.55-.29,6.7-.85.04,0,.07,0,.11,0,13.54,0,24.64-10.23,25.81-23.78.54-6.21-1.05-12.09-4.17-16.87-.07-1.97-.35-3.93-.84-5.84.06-4.5-1.07-9.02-3.39-13.04-4.43-7.69-12.45-12.29-21.45-12.29-2.02,0-4,.24-5.9.69,3.53-26.89,10.64-53.05,21.26-78.16,15.3-36.16,37.2-68.65,65.1-96.54,27.9-27.9,60.38-49.8,96.54-65.1,37.43-15.83,77.2-23.86,118.21-23.86m-177.43,245.2c-11.88,1-21.17,10.02-22.46,22.18-.44,4.18.14,8.23,1.55,11.89-.76,2.41-1.17,4.97-1.17,7.6,0,3.91.87,7.66,2.47,11.01.47,4.53,2.15,8.87,4.97,12.6,4.95,6.57,12.91,10.49,21.29,10.49,1.32,0,2.63-.1,3.9-.28,3.23,1.4,6.75,2.15,10.42,2.15,2.16,0,4.33-.27,6.45-.8,19.78-4.98,34.15-23.85,34.94-45.89.25-6.9-2.46-13.81-7.43-18.96-4.32-4.48-10.07-7.25-16.04-7.81-3.64-2.38-7.93-3.84-12.54-4.13-3.97-2.24-8.53-3.46-13.19-3.46-4.04,0-8.09.92-11.71,2.67-.49.24-.97.48-1.45.74m177.43-265.2c-178.78,0-323.71,144.93-323.71,323.71s144.93,323.71,323.71,323.71,323.71-144.93,323.71-323.71c0-6.21-.19-12.37-.54-18.48-.28.14-.56.27-.86.37-2.44.84-4.92,1.15-7.41,1.15-2.07,0-4.15-.21-6.22-.5-.24,2.85-2.2,5.54-5.89,5.54-6.87,0-7.75-9.26-2.68-11.68-.01-.14-.04-.28-.04-.41v-17.61c-1.51-2.96-.1-7.5,4.24-7.5,1.05,0,1.92.27,2.62.71.79-.75,1.88-1.23,3.29-1.23,1.96,0,3.32.93,4.09,2.22.86-.55,1.77-.79,2.67-.79,1.17,0,2.32.42,3.3,1.12-22.81-156.45-157.51-276.61-320.29-276.61h0Zm-172.21,286.07c1.32-1.42,2.94-2.65,4.92-3.6.96-.46,1.99-.68,3.01-.68,3.2,0,6.24,2.16,6.2,5.86,1.28-1.6,3.32-2.45,5.3-2.45,2.53,0,4.95,1.38,5.57,4.34.12.59.22,1.18.32,1.77,1.82-1.19,3.22-1.74,5.71-2,.15-.02.3-.02.45-.02,3.04,0,5.78,3.24,5.67,6.15-.43,11.92-7.74,24.17-19.84,27.21-.53.13-1.05.2-1.56.2-2.21,0-4.18-1.19-5.31-3.09-.6.18-1.23.29-1.87.29-.97,0-1.97-.23-2.93-.77-1.13,1.17-2.66,1.7-4.21,1.7-3.68,0-7.44-2.99-6.14-7.57.17-.58.35-1.16.53-1.74-4.18-1.42-4.16-8.06.02-9.47-.36-2.43-.38-4.88,0-7.21-5.25-1.13-4.85-9.88,1.17-9.88,1.24,0,2.24.37,3,.97h0Zm-125.78,49.57c-7.03,0-7.79-9.72-2.29-11.84-1.19-1.78-1.38-4.22-.58-6.22-.95-2.38-.49-5.38,1.39-7.16-1.47-2.96-.05-7.45,4.27-7.45s5.83,4.79,4.12,7.74c1.63,1.8,1.99,4.62,1.09,6.87.64,1.59.65,3.46.02,5.06,6.68,1.17,6.28,12.14-1.18,12.14-1.08,0-2.01-.24-2.79-.63-.97.91-2.31,1.49-4.02,1.49h0Z"/>
  </g>
  <g id="Texto">
    <path class="cls-2" d="m28.07,473.65h37.18l30.95,71.87,31.16-71.87h37.18v147.07h-37.39l.21-42.38,2.29-29.7-1.25-.21-19.32,50.48h-25.55l-19.73-50.48-1.04.21,2.49,29.7v42.38H28.07v-147.07Z"/>
    <path class="cls-2" d="m312.66,620.72h-39.88l-9.56-29.5h-39.26l-9.14,29.5h-39.88l51.31-147.07h33.86l52.55,147.07Zm-58.37-62.53l-10.18-43h-1.04l-10.8,43h22.02Z"/>
    <path class="cls-2" d="m322.42,473.65h58.79c35.94,0,53.8,25.97,53.8,51.93s-18.07,52.14-53.59,52.14h-21.81v43h-37.18v-147.07Zm58.79,71.04c22.43.21,22.43-36.56,0-36.35h-21.6v36.35h21.6Z"/>
    <path class="cls-2" d="m788.45,609.59h-39.88l-9.56-29.5h-39.26l-9.14,29.5h-39.88l51.31-147.07h33.86l52.55,147.07Zm-58.37-62.53l-10.18-43h-1.04l-10.8,43h22.02Z"/>
    <path class="cls-2" d="m842.46,562.85h-6.65v46.74h-37.6v-147.07h58.79c30.33,0,53.8,13.92,54.63,48.4,0,27.21-11.01,42.58-28.87,48.19l40.09,50.48h-46.32l-34.07-46.74Zm15.16-31.99c23.47,0,23.47-33.65,0-33.65h-21.81v33.65h21.81Z"/>
    <path class="cls-2" d="m1009.68,462.51h46.32l-58.16,71.04,57.96,76.03h-47.15l-37.6-52.56-1.25,1.66v50.89h-37.39v-147.07h37.39v54.42l39.88-54.42Z"/>
  </g>
</svg>